<?xml version="1.0" standalone="no"?>
<!DOCTYPE svg PUBLIC "-//W3C//DTD SVG 20010904//EN"
 "http://www.w3.org/TR/2001/REC-SVG-20010904/DTD/svg10.dtd">
<svg version="1.0" xmlns="http://www.w3.org/2000/svg"
 width="771.000000pt" height="175.000000pt" viewBox="0 0 771.000000 175.000000"
 preserveAspectRatio="xMidYMid meet">

<g transform="translate(0.000000,175.000000) scale(0.100000,-0.100000)"
fill="#f0eee8" stroke="none">
<path d="M5 1698 c-3 -7 -4 -384 -3 -838 l3 -825 3810 0 3810 0 0 835 0 835
-3808 3 c-3041 2 -3809 0 -3812 -10z m1575 -828 l0 -740 -740 0 -740 0 0 740
0 740 740 0 740 0 0 -740z m3773 328 c23 -27 22 -63 -4 -89 -46 -46 -133 5
-112 67 18 54 78 65 116 22z m-393 -168 l0 -30 75 0 75 0 0 -35 0 -35 -76 0
-76 0 3 -123 c5 -165 14 -180 105 -175 61 3 65 1 71 -20 17 -68 -141 -80 -208
-16 -40 38 -49 79 -49 217 l0 117 -25 0 c-39 0 -32 37 17 87 52 53 88 58 88
13z m-2635 -45 c35 -14 36 -16 33 -62 -3 -43 -6 -48 -29 -51 -21 -2 -28 2 -33
23 -4 15 -17 30 -34 36 -34 13 -112 4 -131 -16 -22 -22 1 -62 46 -82 137 -59
165 -76 180 -108 33 -69 -10 -142 -98 -165 -47 -13 -136 1 -183 28 -27 16 -31
24 -34 65 -3 45 -2 47 23 47 18 0 28 -7 35 -24 11 -31 37 -45 92 -52 49 -6 91
12 96 40 5 24 -33 63 -77 77 -140 45 -190 114 -146 199 34 66 159 88 260 45z
m400 14 c61 -15 109 -70 124 -138 21 -98 33 -91 -149 -91 -155 0 -160 -1 -160
-20 0 -32 26 -76 58 -99 49 -34 130 -37 203 -7 10 5 19 -1 26 -17 11 -23 8
-26 -36 -47 -90 -42 -212 -27 -279 34 -94 85 -76 280 33 355 59 40 108 48 180
30z m333 -5 c12 -8 22 -24 22 -35 0 -25 6 -24 42 6 64 54 153 57 210 6 l32
-28 40 29 c54 37 127 46 176 21 58 -30 70 -67 70 -226 l0 -137 40 -16 c27 -11
40 -22 40 -35 0 -18 -9 -19 -115 -19 -108 0 -115 1 -115 20 0 13 12 25 36 35
l36 15 -4 136 c-3 131 -4 137 -28 156 -20 16 -34 19 -70 14 -25 -3 -56 -14
-70 -25 -24 -18 -25 -21 -25 -151 l0 -133 35 -12 c23 -8 36 -19 38 -33 3 -21
1 -22 -112 -22 -109 0 -116 1 -116 20 0 13 12 25 35 34 l35 15 0 131 c0 126
-1 132 -25 155 -28 29 -60 31 -112 10 -71 -30 -73 -34 -73 -170 l0 -123 40
-16 c28 -11 40 -22 40 -36 0 -19 -7 -20 -115 -20 -108 0 -115 1 -115 20 0 13
12 25 35 34 l35 15 0 155 0 156 -35 0 c-31 0 -35 3 -35 25 0 42 83 61 128 29z
m1015 -5 c54 -24 62 -50 65 -216 l4 -153 35 0 c31 0 34 -2 31 -27 -2 -20 -10
-29 -33 -35 -46 -12 -95 1 -107 28 l-11 23 -34 -26 c-62 -48 -202 -31 -233 28
-17 30 -14 96 4 124 25 38 65 54 171 67 l97 11 -5 41 c-4 28 -15 49 -33 65
-26 21 -34 23 -94 17 -36 -3 -77 -9 -91 -12 -22 -5 -27 -2 -31 20 -6 31 0 36
67 53 56 14 158 10 198 -8z m311 11 c14 -5 28 -20 32 -34 l6 -24 44 31 c38 26
54 31 104 32 69 0 108 -23 127 -76 7 -19 12 -91 12 -167 l1 -134 40 -15 c27
-11 40 -22 40 -35 0 -16 -10 -18 -115 -18 -109 0 -115 1 -115 21 0 13 11 25
35 35 l35 14 0 115 c0 127 -14 178 -50 190 -30 10 -89 -3 -127 -27 l-33 -20 0
-129 0 -129 35 -14 c24 -10 35 -22 35 -35 0 -20 -6 -21 -110 -21 -104 0 -110
1 -110 21 0 13 11 25 35 35 l35 14 0 155 0 155 -35 0 c-32 0 -35 2 -35 29 0
23 5 31 23 34 40 8 65 7 91 -3z m937 -9 c23 -19 24 -24 27 -191 l3 -172 35
-14 c22 -9 34 -21 34 -34 0 -19 -7 -20 -115 -20 -108 0 -115 1 -115 20 0 14
12 25 40 36 l40 16 0 154 0 154 -41 0 c-38 0 -40 2 -37 27 2 19 10 29 28 34
45 13 77 9 101 -10z m484 8 c78 -21 75 -8 75 -324 l0 -282 40 -16 c23 -9 40
-22 40 -31 0 -14 -17 -16 -115 -16 -107 0 -115 1 -115 19 0 13 11 23 35 31
l35 12 0 103 0 104 -32 -19 c-88 -50 -216 -13 -257 75 -39 82 -35 184 10 247
60 84 180 125 284 97z m296 -8 c23 -18 24 -26 29 -175 4 -132 8 -158 23 -173
24 -24 95 -22 138 3 l34 20 3 137 3 137 -36 0 c-32 0 -35 2 -35 29 0 25 5 30
36 35 47 9 92 -1 104 -24 6 -10 10 -95 10 -189 l0 -171 36 0 c32 0 35 -2 32
-27 -6 -52 -107 -55 -136 -3 l-16 28 -31 -23 c-72 -55 -170 -52 -219 6 -25 30
-26 34 -26 185 l0 154 -41 0 c-38 0 -40 2 -37 27 2 19 10 29 28 34 45 13 77 9
101 -10z m762 -8 c18 -11 42 -34 54 -52 23 -34 48 -134 38 -151 -4 -6 -69 -10
-166 -10 l-159 0 6 -27 c8 -36 33 -71 68 -97 22 -17 42 -21 94 -20 37 0 76 5
88 12 23 12 44 0 44 -26 0 -43 -184 -71 -260 -39 -173 74 -156 359 25 426 41
15 129 6 168 -16z m286 -357 c11 -28 2 -55 -21 -67 -39 -21 -86 19 -73 62 13
40 80 44 94 5z"/>
<path d="M1015 1429 c-4 -5 -9 -55 -12 -109 -5 -90 -8 -101 -29 -115 -50 -33
-66 -58 -61 -97 8 -59 -19 -48 -37 16 -23 79 -20 127 9 170 30 44 32 72 6 86
-27 14 -75 -27 -97 -85 -21 -56 -15 -147 15 -226 20 -52 20 -54 3 -72 -18 -17
-20 -16 -65 52 -46 70 -49 72 -168 132 -134 67 -164 71 -164 24 0 -28 7 -34
118 -90 113 -59 119 -63 163 -129 l46 -68 -18 -39 c-9 -22 -20 -39 -23 -39 -3
0 -33 27 -66 60 l-61 60 -169 -16 c-94 -9 -176 -21 -182 -26 -18 -14 -18 -269
-1 -286 18 -18 46 -14 58 7 5 11 10 63 10 115 0 53 3 96 8 96 4 1 59 7 122 14
l115 14 28 -26 27 -26 -41 -12 c-23 -7 -59 -29 -80 -50 -95 -93 -119 -284 -43
-343 57 -45 181 -35 274 22 59 36 85 65 104 120 l12 37 24 -24 23 -25 -14
-123 -14 -123 -110 -5 c-106 -5 -110 -6 -113 -28 -7 -46 11 -52 148 -52 105 0
130 3 141 16 8 10 19 79 28 185 l15 170 -58 58 c-32 33 -56 63 -52 69 3 5 19
15 36 22 29 12 34 10 100 -34 68 -45 71 -49 130 -166 52 -104 63 -120 85 -120
14 0 29 8 35 20 9 16 -1 43 -55 150 -65 129 -67 132 -130 172 -36 22 -65 44
-65 48 0 4 7 13 15 20 11 9 27 7 77 -10 121 -42 204 -37 276 17 38 28 43 66
11 83 -16 9 -26 8 -46 -7 -70 -49 -100 -53 -195 -27 -62 18 -75 41 -19 36 38
-4 73 16 97 57 17 28 20 29 118 36 56 4 107 12 114 17 19 16 17 202 -4 222
-40 41 -64 10 -64 -81 l0 -73 -53 0 -53 0 0 50 c0 42 -5 55 -27 78 -24 23 -36
27 -83 26 l-56 0 6 35 c3 20 6 44 6 54 0 14 10 17 69 17 50 0 74 4 85 16 19
19 20 36 4 52 -15 15 -224 17 -233 1z"/>
<path d="M2603 924 c-26 -13 -63 -64 -63 -88 0 -3 54 -6 120 -6 66 0 120 2
120 5 0 3 -6 21 -14 40 -25 59 -98 81 -163 49z"/>
<path d="M3933 741 c-23 -4 -48 -13 -57 -20 -21 -17 -20 -65 1 -82 22 -19 111
-16 151 4 29 16 32 22 32 62 l0 45 -42 -1 c-24 -1 -62 -5 -85 -8z"/>
<path d="M5679 930 c-73 -22 -109 -73 -109 -156 0 -124 126 -197 208 -121 21
19 22 29 22 148 0 123 -1 127 -22 133 -30 7 -66 6 -99 -4z"/>
<path d="M6703 925 c-29 -12 -63 -58 -63 -85 0 -6 41 -10 115 -10 109 0 115 1
115 20 0 32 -28 67 -62 79 -40 14 -66 13 -105 -4z"/>
</g>
</svg>
